<svg width="3000" height="3000" viewBox="0 0 3000 3000" fill="none" xmlns="http://www.w3.org/2000/svg">
<path d="M309.8 1379V1675H231.4V1379H309.8ZM406.047 1429.8C392.18 1429.8 380.98 1426.07 372.447 1418.6C364.18 1410.87 360.047 1401.27 360.047 1389.8C360.047 1378.07 364.18 1368.33 372.447 1360.6C380.98 1352.87 392.18 1349 406.047 1349C419.647 1349 430.58 1352.87 438.847 1360.6C447.38 1368.33 451.647 1378.07 451.647 1389.8C451.647 1401.27 447.38 1410.87 438.847 1418.6C430.58 1426.07 419.647 1429.8 406.047 1429.8ZM444.847 1450.6V1675H366.447V1450.6H444.847ZM579.894 1481.8C586.027 1471.13 594.694 1462.87 605.894 1457C617.094 1450.87 630.294 1447.8 645.494 1447.8C663.36 1447.8 679.494 1452.47 693.894 1461.8C708.56 1471.13 720.027 1484.47 728.294 1501.8C736.827 1519.13 741.094 1539.4 741.094 1562.6C741.094 1585.8 736.827 1606.2 728.294 1623.8C720.027 1641.13 708.56 1654.47 693.894 1663.8C679.494 1673.13 663.36 1677.8 645.494 1677.8C630.294 1677.8 617.094 1674.87 605.894 1669C594.694 1662.87 586.027 1654.47 579.894 1643.8V1675H501.494V1379H579.894V1481.8ZM661.494 1562.6C661.494 1547.93 657.494 1536.6 649.494 1528.6C641.76 1520.33 632.16 1516.2 620.694 1516.2C609.227 1516.2 599.494 1520.33 591.494 1528.6C583.76 1536.87 579.894 1548.2 579.894 1562.6C579.894 1577.27 583.76 1588.73 591.494 1597C599.494 1605.27 609.227 1609.4 620.694 1609.4C632.16 1609.4 641.76 1605.27 649.494 1597C657.494 1588.47 661.494 1577 661.494 1562.6ZM999.769 1560.2C999.769 1566.33 999.369 1572.47 998.569 1578.6H850.169C850.969 1590.87 854.302 1600.07 860.169 1606.2C866.302 1612.07 874.035 1615 883.369 1615C896.435 1615 905.769 1609.13 911.369 1597.4H994.969C991.502 1612.87 984.702 1626.73 974.569 1639C964.702 1651 952.169 1660.47 936.969 1667.4C921.769 1674.33 904.969 1677.8 886.569 1677.8C864.435 1677.8 844.702 1673.13 827.369 1663.8C810.302 1654.47 796.835 1641.13 786.969 1623.8C777.369 1606.47 772.569 1586.07 772.569 1562.6C772.569 1539.13 777.369 1518.87 786.969 1501.8C796.569 1484.47 809.902 1471.13 826.969 1461.8C844.302 1452.47 864.169 1447.8 886.569 1447.8C908.702 1447.8 928.302 1452.33 945.369 1461.4C962.435 1470.47 975.769 1483.53 985.369 1500.6C994.969 1517.4 999.769 1537.27 999.769 1560.2ZM919.769 1540.6C919.769 1531 916.569 1523.53 910.169 1518.2C903.769 1512.6 895.769 1509.8 886.169 1509.8C876.569 1509.8 868.702 1512.47 862.569 1517.8C856.435 1522.87 852.435 1530.47 850.569 1540.6H919.769ZM1122.25 1490.2C1131.05 1477.4 1141.72 1467.27 1154.25 1459.8C1166.79 1452.33 1180.25 1448.6 1194.65 1448.6V1532.2H1172.65C1155.59 1532.2 1142.92 1535.53 1134.65 1542.2C1126.39 1548.87 1122.25 1560.47 1122.25 1577V1675H1043.85V1450.6H1122.25V1490.2ZM1367.16 1608.2V1675H1333.16C1275.83 1675 1247.16 1646.6 1247.16 1589.8V1515.8H1219.56V1450.6H1247.16V1396.2H1325.96V1450.6H1366.76V1515.8H1325.96V1591C1325.96 1597.13 1327.29 1601.53 1329.96 1604.2C1332.89 1606.87 1337.69 1608.2 1344.36 1608.2H1367.16ZM1656.72 1450.6L1514.32 1781.8H1429.12L1482.72 1665.4L1390.72 1450.6H1477.92L1525.12 1577.8L1570.72 1450.6H1656.72ZM1688.33 1537.5C1688.33 1509.17 1693.99 1484.5 1705.33 1463.5C1716.66 1442.17 1732.33 1425.67 1752.33 1414C1772.66 1402.33 1795.83 1396.5 1821.83 1396.5C1855.49 1396.5 1883.16 1404.67 1904.83 1421C1926.83 1437.33 1941.33 1460 1948.33 1489H1899.33C1894.66 1472.33 1885.49 1459.17 1871.83 1449.5C1858.49 1439.83 1841.83 1435 1821.83 1435C1795.83 1435 1774.83 1444 1758.83 1462C1742.83 1479.67 1734.83 1504.83 1734.83 1537.5C1734.83 1570.5 1742.83 1596 1758.83 1614C1774.83 1632 1795.83 1641 1821.83 1641C1841.83 1641 1858.49 1636.33 1871.83 1627C1885.16 1617.67 1894.33 1604.33 1899.33 1587H1948.33C1940.99 1615 1926.33 1637.5 1904.33 1654.5C1882.33 1671.17 1854.83 1679.5 1821.83 1679.5C1795.83 1679.5 1772.66 1673.67 1752.33 1662C1732.33 1650.33 1716.66 1633.83 1705.33 1612.5C1693.99 1591.17 1688.33 1566.17 1688.33 1537.5ZM2054.54 1305V1675H2009.04V1305H2054.54ZM2375.09 1401V1675H2329.59V1634.5C2320.92 1648.5 2308.75 1659.5 2293.09 1667.5C2277.75 1675.17 2260.75 1679 2242.09 1679C2220.75 1679 2201.59 1674.67 2184.59 1666C2167.59 1657 2154.09 1643.67 2144.09 1626C2134.42 1608.33 2129.59 1586.83 2129.59 1561.5V1401H2174.59V1555.5C2174.59 1582.5 2181.42 1603.33 2195.09 1618C2208.75 1632.33 2227.42 1639.5 2251.09 1639.5C2275.42 1639.5 2294.59 1632 2308.59 1617C2322.59 1602 2329.59 1580.17 2329.59 1551.5V1401H2375.09ZM2497.41 1452C2506.74 1435.67 2520.41 1422.33 2538.41 1412C2556.41 1401.67 2576.91 1396.5 2599.91 1396.5C2624.58 1396.5 2646.74 1402.33 2666.41 1414C2686.08 1425.67 2701.58 1442.17 2712.91 1463.5C2724.24 1484.5 2729.91 1509 2729.91 1537C2729.91 1564.67 2724.24 1589.33 2712.91 1611C2701.58 1632.67 2685.91 1649.5 2665.91 1661.5C2646.24 1673.5 2624.24 1679.5 2599.91 1679.5C2576.24 1679.5 2555.41 1674.33 2537.41 1664C2519.74 1653.67 2506.41 1640.5 2497.41 1624.5V1675H2451.91V1305H2497.41V1452ZM2683.41 1537C2683.41 1516.33 2679.24 1498.33 2670.91 1483C2662.58 1467.67 2651.24 1456 2636.91 1448C2622.91 1440 2607.41 1436 2590.41 1436C2573.74 1436 2558.24 1440.17 2543.91 1448.5C2529.91 1456.5 2518.58 1468.33 2509.91 1484C2501.58 1499.33 2497.41 1517.17 2497.41 1537.5C2497.41 1558.17 2501.58 1576.33 2509.91 1592C2518.58 1607.33 2529.91 1619.17 2543.91 1627.5C2558.24 1635.5 2573.74 1639.5 2590.41 1639.5C2607.41 1639.5 2622.91 1635.5 2636.91 1627.5C2651.24 1619.17 2662.58 1607.33 2670.91 1592C2679.24 1576.33 2683.41 1558 2683.41 1537Z" fill="white"/>
</svg>
