<svg width="61" height="60" viewBox="0 0 61 60" fill="none" xmlns="http://www.w3.org/2000/svg">
<rect x="0.5" width="60" height="60" rx="30" fill="#29C480"/>
<path d="M30.0703 15.4285C21.7994 15.4285 15.0703 22.1576 15.0703 30.4285C15.0703 38.6994 21.7994 45.4285 30.0703 45.4285C32.708 45.4285 35.3016 44.7345 37.5721 43.4207L35.6953 40.1742C33.9943 41.1584 32.0488 41.6785 30.0703 41.6785C23.8667 41.6785 18.8203 36.6321 18.8203 30.4285C18.8203 24.2249 23.8667 19.1785 30.0703 19.1785C36.2739 19.1785 41.3203 24.2249 41.3203 30.4285V32.0618C41.3203 33.2886 40.5321 34.1784 39.4453 34.1784C38.4116 34.1784 37.5703 33.3371 37.5703 32.3034V24.8035H34.9784C33.6593 23.6511 31.9552 22.9284 30.0703 22.9284C25.9349 22.9284 22.5703 26.293 22.5703 30.4285C22.5703 34.5639 25.9349 37.9285 30.0703 37.9285C32.0396 37.9285 33.8201 37.1497 35.1598 35.9038C36.1924 37.131 37.7197 37.9285 39.4453 37.9285C42.5993 37.9285 45.0703 35.3513 45.0703 32.0618V30.4285C45.0703 22.1576 38.3412 15.4285 30.0703 15.4285V15.4285ZM30.0703 34.1784C28.0021 34.1784 26.3203 32.4966 26.3203 30.4285C26.3203 28.3603 28.0022 26.6785 30.0703 26.6785C32.1385 26.6785 33.8203 28.3603 33.8203 30.4285C33.8203 32.4967 32.1385 34.1784 30.0703 34.1784Z" fill="white"/>
</svg>
