<svg width="25" height="24" viewBox="0 0 25 24" fill="none" xmlns="http://www.w3.org/2000/svg">
<path d="M20.1211 10.999H22.1211C22.1211 5.869 18.2481 2 13.1111 2V4C17.1731 4 20.1211 6.943 20.1211 10.999Z" fill="white"/>
<path d="M13.1211 7.99999C15.2241 7.99999 16.1211 8.89699 16.1211 11H18.1211C18.1211 7.77499 16.3461 5.99999 13.1211 5.99999V7.99999ZM16.5431 13.443C16.351 13.2683 16.0985 13.1752 15.8389 13.1832C15.5794 13.1912 15.3331 13.2998 15.1521 13.486L12.7591 15.947C12.1831 15.837 11.0251 15.476 9.83313 14.287C8.64113 13.094 8.28013 11.933 8.17313 11.361L10.6321 8.96699C10.8185 8.78612 10.9273 8.53982 10.9353 8.2802C10.9433 8.02059 10.85 7.76804 10.6751 7.57599L6.98013 3.51299C6.80517 3.32035 6.56201 3.2035 6.30228 3.18725C6.04256 3.17101 5.78673 3.25665 5.58913 3.42599L3.41913 5.28699C3.24624 5.46051 3.14305 5.69145 3.12913 5.93599C3.11413 6.18599 2.82813 12.108 7.42013 16.702C11.4261 20.707 16.4441 21 17.8261 21C18.0281 21 18.1521 20.994 18.1851 20.992C18.4296 20.9783 18.6605 20.8747 18.8331 20.701L20.6931 18.53C20.8626 18.3325 20.9484 18.0768 20.9324 17.817C20.9163 17.5573 20.7996 17.3141 20.6071 17.139L16.5431 13.443Z" fill="white"/>
</svg>
