<svg width="25" height="24" viewBox="0 0 25 24" fill="none" xmlns="http://www.w3.org/2000/svg">
<path d="M12.1211 1.5C9.93386 1.50258 7.83694 2.3726 6.29032 3.91922C4.74371 5.46584 3.87368 7.56276 3.8711 9.75C3.86848 11.5374 4.45234 13.2763 5.5331 14.7C5.5331 14.7 5.7581 14.9963 5.79485 15.039L12.1211 22.5L18.4504 15.0353C18.4834 14.9955 18.7091 14.7 18.7091 14.7L18.7099 14.6978C19.7901 13.2747 20.3737 11.5366 20.3711 9.75C20.3685 7.56276 19.4985 5.46584 17.9519 3.91922C16.4053 2.3726 14.3083 1.50258 12.1211 1.5ZM12.1211 12.75C11.5278 12.75 10.9477 12.5741 10.4544 12.2444C9.96104 11.9148 9.57653 11.4462 9.34946 10.8981C9.1224 10.3499 9.06299 9.74667 9.17875 9.16473C9.2945 8.58279 9.58022 8.04824 9.99978 7.62868C10.4193 7.20912 10.9539 6.9234 11.5358 6.80764C12.1178 6.69189 12.721 6.7513 13.2692 6.97836C13.8173 7.20542 14.2859 7.58994 14.6155 8.08329C14.9452 8.57664 15.1211 9.15666 15.1211 9.75C15.1201 10.5453 14.8037 11.3078 14.2413 11.8702C13.6789 12.4326 12.9164 12.749 12.1211 12.75Z" fill="white"/>
</svg>
