<svg width="61" height="60" viewBox="0 0 61 60" fill="none" xmlns="http://www.w3.org/2000/svg">
<rect x="0.5" width="60" height="60" rx="30" fill="#29C480"/>
<path d="M47.4325 29.6698L38.6821 20.9194C38.41 20.6473 37.9286 20.6473 37.6565 20.9194L35.7594 22.8165C35.476 23.0998 35.476 23.5591 35.7594 23.8425L42.1001 30.1824L35.7597 36.5235C35.4764 36.8068 35.4764 37.2661 35.7597 37.5495L37.6568 39.4466C37.7929 39.5826 37.9776 39.6595 38.1698 39.6595C38.3618 39.6595 38.5468 39.5826 38.6828 39.4466L47.4325 30.6965C47.7159 30.4128 47.7159 29.9532 47.4325 29.6698Z" fill="white"/>
<path d="M25.2447 36.5235L18.9051 30.1832L25.2457 23.8432C25.3818 23.7072 25.4583 23.5229 25.4583 23.3302C25.4583 23.1379 25.3822 22.9533 25.2457 22.8172L23.3487 20.9201C23.2126 20.7841 23.0279 20.7075 22.8357 20.7075C22.6434 20.7075 22.4587 20.7841 22.3227 20.9201L13.5719 29.6698C13.2885 29.9531 13.2885 30.4125 13.5719 30.6962L22.3223 39.4462C22.4583 39.5823 22.643 39.6592 22.8353 39.6592C23.0276 39.6592 23.2122 39.5823 23.3483 39.4462L25.2454 37.5491C25.5287 37.2661 25.5287 36.8068 25.2447 36.5235Z" fill="white"/>
<path d="M35.4815 17.976C35.3893 17.8069 35.234 17.6814 35.0497 17.627L33.5118 17.1731C33.128 17.0592 32.7238 17.2794 32.6106 17.6636L25.4711 41.8418C25.4166 42.0264 25.4377 42.2249 25.5295 42.3936C25.6213 42.563 25.7769 42.6882 25.9612 42.743L27.4991 43.1968C27.5677 43.2171 27.637 43.2269 27.7048 43.2269C28.0179 43.2269 28.3071 43.0223 28.4003 42.7063L35.5399 18.5278C35.5943 18.3431 35.5736 18.1447 35.4815 17.976Z" fill="white"/>
</svg>
