<svg width="800" height="800" viewBox="0 0 800 800" fill="none" xmlns="http://www.w3.org/2000/svg">
<rect x="32" y="192" width="747" height="423" fill="white"/>
<path d="M746.667 666.667H53.3333C23.8889 666.667 0 642.778 0 613.333V186.667C0 157.222 23.8889 133.333 53.3333 133.333H746.667C776.111 133.333 800 157.222 800 186.667V613.333C800 642.778 776.111 666.667 746.667 666.667ZM396.444 461.378L388.467 511.378C406.022 518.889 426.444 523.267 447.889 523.267C449.6 523.267 451.289 523.245 452.978 523.178H452.733C454.689 523.289 456.956 523.356 459.267 523.356C483.911 523.356 506.756 515.622 525.511 502.445L525.133 502.689C542.156 490.067 553.089 470.045 553.089 447.467C553.089 447.356 553.089 447.245 553.089 447.133C553.089 422.689 536.733 402.4 504.489 386.711C495.022 382.089 486.933 377.245 479.333 371.778L479.844 372.133C475.444 369.245 472.511 364.467 472.222 358.978V358.933C472.578 353.156 475.889 348.222 480.644 345.6L480.733 345.556C487 341.911 494.511 339.756 502.556 339.756C503.489 339.756 504.422 339.778 505.356 339.845H505.222H507C507.511 339.845 508.111 339.822 508.711 339.822C523.022 339.822 536.6 342.911 548.844 348.445L548.222 348.2L553.422 350.978L561.4 302.733C546.4 296.8 529 293.356 510.8 293.356C510.444 293.356 510.067 293.356 509.711 293.356H509.778C508.356 293.289 506.689 293.245 505.022 293.245C480.667 293.245 458.089 300.956 439.622 314.067L439.978 313.822C423.267 325.733 412.489 345.022 412.489 366.845V366.956C412.267 390.467 429.2 410.778 462.844 427.4C471.733 431.289 479.4 436.045 486.267 441.756L486.111 441.622C490 444.911 492.511 449.733 492.711 455.133V455.178V455.222C492.711 462.311 488.489 468.4 482.4 471.133L482.289 471.178C475.622 474.689 467.711 476.733 459.311 476.733C458.978 476.733 458.622 476.733 458.289 476.733H458.333C457.844 476.733 457.244 476.733 456.667 476.733C437.622 476.733 419.578 472.511 403.4 464.956L404.178 465.289L396.556 461.467L396.444 461.378ZM621.444 486.733H695.111C696.296 491.815 698.615 502.926 702.067 520.067H755.556L709.022 297.156H664.578C663.8 297.089 662.889 297.045 661.956 297.045C649.467 297.045 638.778 304.778 634.422 315.711L634.356 315.911L549.022 520.067H609.467L621.6 486.756L621.444 486.733ZM330.911 297.156L294.778 520.067H352.422L388.533 297.156H330.911ZM109.378 342.645L156.267 519.711H217.022L307.578 297.156H246.556L190.244 449.245L184.333 418.333L164.244 315.911C162.222 305.045 152.822 296.911 141.511 296.911C140.356 296.911 139.2 297 138.089 297.156L138.222 297.133H45.1778L44.4889 301.645C116.133 319.845 163.2 359.111 184.4 418.311C177.533 400.711 167.511 385.711 154.933 373.333L154.911 373.311C142.311 360.378 127.178 350 110.311 342.911L109.422 342.578L109.378 342.645ZM685.756 440.889H637.756C641 432.326 648.644 411.585 660.689 378.667L661.711 375.533C662.644 373.222 663.8 370.2 665.267 366.511C666.733 362.822 667.711 359.8 668.378 357.489L672.556 376.578L685.733 440.8L685.756 440.889Z" fill="black"/>
</svg>
