<svg width="20" height="15" viewBox="0 0 20 15" fill="none" xmlns="http://www.w3.org/2000/svg">
<path d="M9.16667 4.66667C9.16667 6.50833 7.675 8 5.83333 8C3.99167 8 2.5 6.50833 2.5 4.66667C2.5 2.825 3.99167 1.33333 5.83333 1.33333C7.675 1.33333 9.16667 2.825 9.16667 4.66667ZM9.16667 10.2667V14.6667H0V13C0 11.1583 2.60833 9.66667 5.83333 9.66667C7.08333 9.66667 8.225 9.89167 9.16667 10.2667ZM20 14.6667H10.8333V0.5H20V14.6667ZM13.3333 7.58333C13.3333 6.43333 14.2667 5.5 15.4167 5.5C16.5667 5.5 17.5 6.43333 17.5 7.58333C17.5 8.73333 16.5667 9.66667 15.4167 9.66667C14.2667 9.66667 13.3333 8.73333 13.3333 7.58333ZM18.3333 3.83333C17.4167 3.83333 16.6667 3.09167 16.6667 2.16667H14.1667C14.1667 3.09167 13.425 3.83333 12.5 3.83333V11.3333C13.425 11.3333 14.1667 12.0833 14.1667 13H16.6667C16.6667 12.0833 17.4167 11.3333 18.3333 11.3333V3.83333Z" fill="white"/>
</svg>
