<svg width="15" height="15" viewBox="0 0 15 15" fill="none" xmlns="http://www.w3.org/2000/svg">
<g clip-path="url(#clip0_724_4492)">
<g filter="url(#filter0_dd_724_4492)">
<path d="M7.18753 13.125C7.96725 13.125 8.73934 12.9714 9.45971 12.673C10.1801 12.3746 10.8346 11.9373 11.386 11.3859C11.9373 10.8346 12.3747 10.1801 12.6731 9.45968C12.9715 8.73931 13.125 7.96722 13.125 7.1875C13.125 6.40778 12.9715 5.63569 12.6731 4.91532C12.3747 4.19495 11.9373 3.5404 11.386 2.98905C10.8346 2.43771 10.1801 2.00035 9.45971 1.70197C8.73934 1.40358 7.96725 1.25 7.18753 1.25C5.61281 1.25 4.10258 1.87556 2.98908 2.98905C1.87559 4.10255 1.25003 5.61278 1.25003 7.1875C1.25003 8.76222 1.87559 10.2724 2.98908 11.3859C4.10258 12.4994 5.61281 13.125 7.18753 13.125Z" fill="white"/>
</g>
<g filter="url(#filter1_dii_724_4492)">
<mask id="path-2-inside-1_724_4492" fill="white">
<path d="M13.3125 13.7494C13.2 13.7494 13.0875 13.7056 13.0063 13.6244L11.8438 12.4619C11.7626 12.3793 11.7171 12.2682 11.7171 12.1525C11.7171 12.0367 11.7626 11.9256 11.8438 11.8431C12.0125 11.6744 12.2875 11.6744 12.4625 11.8431L13.625 13.0056C13.7938 13.1744 13.7938 13.4494 13.625 13.6244C13.5375 13.7056 13.425 13.7494 13.3125 13.7494Z"/>
</mask>
<path d="M13.3125 13.7494C13.2 13.7494 13.0875 13.7056 13.0063 13.6244L11.8438 12.4619C11.7626 12.3793 11.7171 12.2682 11.7171 12.1525C11.7171 12.0367 11.7626 11.9256 11.8438 11.8431C12.0125 11.6744 12.2875 11.6744 12.4625 11.8431L13.625 13.0056C13.7938 13.1744 13.7938 13.4494 13.625 13.6244C13.5375 13.7056 13.425 13.7494 13.3125 13.7494Z" fill="white"/>
<path d="M13.0063 13.6244L12.2991 14.3315L12.2992 14.3315L13.0063 13.6244ZM11.8438 12.4619L11.1307 13.163L11.1367 13.169L11.8438 12.4619ZM11.7171 12.1525L10.7171 12.1525L11.7171 12.1525ZM11.8438 11.8431L11.1366 11.136L11.1307 11.142L11.8438 11.8431ZM12.4625 11.8431L13.1696 11.136L13.1632 11.1296L13.1566 11.1233L12.4625 11.8431ZM13.625 13.0056L12.9179 13.7127L12.9179 13.7127L13.625 13.0056ZM13.625 13.6244L14.3055 14.3572L14.3257 14.3384L14.3449 14.3185L13.625 13.6244ZM13.3125 13.7494V12.7494C13.4512 12.7494 13.5974 12.8013 13.7134 12.9173L13.0063 13.6244L12.2992 14.3315C12.5776 14.61 12.9488 14.7494 13.3125 14.7494V13.7494ZM13.0063 13.6244L13.7134 12.9173L12.5509 11.7548L11.8438 12.4619L11.1367 13.169L12.2991 14.3315L13.0063 13.6244ZM11.8438 12.4619L12.5568 11.7607C12.6595 11.8652 12.7171 12.0059 12.7171 12.1525H11.7171L10.7171 12.1525C10.7171 12.5305 10.8657 12.8934 11.1307 13.163L11.8438 12.4619ZM11.7171 12.1525L12.7171 12.1525C12.7171 12.2991 12.6595 12.4397 12.5568 12.5442L11.8438 11.8431L11.1307 11.142C10.8657 11.4115 10.7171 11.7744 10.7171 12.1525H11.7171ZM11.8438 11.8431L12.5509 12.5502C12.3221 12.7789 11.9735 12.7608 11.7684 12.563L12.4625 11.8431L13.1566 11.1233C12.6015 10.5879 11.7029 10.5698 11.1367 11.136L11.8438 11.8431ZM12.4625 11.8431L11.7554 12.5502L12.9179 13.7127L13.625 13.0056L14.3321 12.2985L13.1696 11.136L12.4625 11.8431ZM13.625 13.0056L12.9179 13.7127C12.6892 13.484 12.7073 13.1354 12.9052 12.9302L13.625 13.6244L14.3449 14.3185C14.8802 13.7633 14.8983 12.8647 14.3321 12.2985L13.625 13.0056ZM13.625 13.6244L12.9446 12.8916C13.038 12.8048 13.1672 12.7494 13.3125 12.7494V13.7494V14.7494C13.6828 14.7494 14.037 14.6065 14.3055 14.3572L13.625 13.6244Z" fill="white" mask="url(#path-2-inside-1_724_4492)"/>
</g>
</g>
<defs>
<filter id="filter0_dd_724_4492" x="-16.75" y="-8.75" width="47.875" height="47.875" filterUnits="userSpaceOnUse" color-interpolation-filters="sRGB">
<feFlood flood-opacity="0" result="BackgroundImageFix"/>
<feColorMatrix in="SourceAlpha" type="matrix" values="0 0 0 0 0 0 0 0 0 0 0 0 0 0 0 0 0 0 127 0" result="hardAlpha"/>
<feOffset dy="4"/>
<feGaussianBlur stdDeviation="2"/>
<feColorMatrix type="matrix" values="0 0 0 0 0 0 0 0 0 0 0 0 0 0 0 0 0 0 0.3 0"/>
<feBlend mode="normal" in2="BackgroundImageFix" result="effect1_dropShadow_724_4492"/>
<feColorMatrix in="SourceAlpha" type="matrix" values="0 0 0 0 0 0 0 0 0 0 0 0 0 0 0 0 0 0 127 0" result="hardAlpha"/>
<feMorphology radius="6" operator="dilate" in="SourceAlpha" result="effect2_dropShadow_724_4492"/>
<feOffset dy="8"/>
<feGaussianBlur stdDeviation="6"/>
<feColorMatrix type="matrix" values="0 0 0 0 0 0 0 0 0 0 0 0 0 0 0 0 0 0 0.15 0"/>
<feBlend mode="normal" in2="effect1_dropShadow_724_4492" result="effect2_dropShadow_724_4492"/>
<feBlend mode="normal" in="SourceGraphic" in2="effect2_dropShadow_724_4492" result="shape"/>
</filter>
<filter id="filter1_dii_724_4492" x="2.71713" y="2.71655" width="26.0344" height="27.0328" filterUnits="userSpaceOnUse" color-interpolation-filters="sRGB">
<feFlood flood-opacity="0" result="BackgroundImageFix"/>
<feColorMatrix in="SourceAlpha" type="matrix" values="0 0 0 0 0 0 0 0 0 0 0 0 0 0 0 0 0 0 127 0" result="hardAlpha"/>
<feOffset dx="6" dy="6"/>
<feGaussianBlur stdDeviation="4"/>
<feComposite in2="hardAlpha" operator="out"/>
<feColorMatrix type="matrix" values="0 0 0 0 0.0235294 0 0 0 0 0.478431 0 0 0 0 0.27451 0 0 0 0.3 0"/>
<feBlend mode="normal" in2="BackgroundImageFix" result="effect1_dropShadow_724_4492"/>
<feBlend mode="normal" in="SourceGraphic" in2="effect1_dropShadow_724_4492" result="shape"/>
<feColorMatrix in="SourceAlpha" type="matrix" values="0 0 0 0 0 0 0 0 0 0 0 0 0 0 0 0 0 0 127 0" result="hardAlpha"/>
<feOffset dx="-10" dy="-11"/>
<feGaussianBlur stdDeviation="4.5"/>
<feComposite in2="hardAlpha" operator="arithmetic" k2="-1" k3="1"/>
<feColorMatrix type="matrix" values="0 0 0 0 0.0235294 0 0 0 0 0.478431 0 0 0 0 0.27451 0 0 0 0.5 0"/>
<feBlend mode="normal" in2="shape" result="effect2_innerShadow_724_4492"/>
<feColorMatrix in="SourceAlpha" type="matrix" values="0 0 0 0 0 0 0 0 0 0 0 0 0 0 0 0 0 0 127 0" result="hardAlpha"/>
<feOffset dx="15" dy="16"/>
<feGaussianBlur stdDeviation="9.5"/>
<feComposite in2="hardAlpha" operator="arithmetic" k2="-1" k3="1"/>
<feColorMatrix type="matrix" values="0 0 0 0 0.0235294 0 0 0 0 0.478431 0 0 0 0 0.27451 0 0 0 0.4 0"/>
<feBlend mode="normal" in2="effect2_innerShadow_724_4492" result="effect3_innerShadow_724_4492"/>
</filter>
<clipPath id="clip0_724_4492">
<rect width="15" height="15" fill="white"/>
</clipPath>
</defs>
</svg>
