<svg width="80" height="35" viewBox="0 0 80 35" fill="none" xmlns="http://www.w3.org/2000/svg">
<rect width="80" height="35" rx="5" fill="white"/>
<path d="M17.97 16.24C17.97 16.6467 17.8767 17.02 17.69 17.36C17.5033 17.6933 17.2167 17.9633 16.83 18.17C16.4433 18.3767 15.9633 18.48 15.39 18.48H14.33V21H12.62V13.98H15.39C15.95 13.98 16.4233 14.0767 16.81 14.27C17.1967 14.4633 17.4867 14.73 17.68 15.07C17.8733 15.41 17.97 15.8 17.97 16.24ZM15.26 17.12C15.5867 17.12 15.83 17.0433 15.99 16.89C16.15 16.7367 16.23 16.52 16.23 16.24C16.23 15.96 16.15 15.7433 15.99 15.59C15.83 15.4367 15.5867 15.36 15.26 15.36H14.33V17.12H15.26ZM19.0202 18.2C19.0202 17.6267 19.1269 17.1233 19.3402 16.69C19.5602 16.2567 19.8569 15.9233 20.2302 15.69C20.6036 15.4567 21.0202 15.34 21.4802 15.34C21.8736 15.34 22.2169 15.42 22.5102 15.58C22.8102 15.74 23.0402 15.95 23.2002 16.21V15.42H24.9102V21H23.2002V20.21C23.0336 20.47 22.8002 20.68 22.5002 20.84C22.2069 21 21.8636 21.08 21.4702 21.08C21.0169 21.08 20.6036 20.9633 20.2302 20.73C19.8569 20.49 19.5602 20.1533 19.3402 19.72C19.1269 19.28 19.0202 18.7733 19.0202 18.2ZM23.2002 18.21C23.2002 17.7833 23.0802 17.4467 22.8402 17.2C22.6069 16.9533 22.3202 16.83 21.9802 16.83C21.6402 16.83 21.3502 16.9533 21.1102 17.2C20.8769 17.44 20.7602 17.7733 20.7602 18.2C20.7602 18.6267 20.8769 18.9667 21.1102 19.22C21.3502 19.4667 21.6402 19.59 21.9802 19.59C22.3202 19.59 22.6069 19.4667 22.8402 19.22C23.0802 18.9733 23.2002 18.6367 23.2002 18.21ZM28.3573 16.35C28.5573 16.0433 28.8073 15.8033 29.1073 15.63C29.4073 15.45 29.7407 15.36 30.1073 15.36V17.17H29.6373C29.2107 17.17 28.8907 17.2633 28.6773 17.45C28.464 17.63 28.3573 17.95 28.3573 18.41V21H26.6473V15.42H28.3573V16.35ZM34.5347 19.55V21H33.6647C33.0447 21 32.5614 20.85 32.2147 20.55C31.868 20.2433 31.6947 19.7467 31.6947 19.06V16.84H31.0147V15.42H31.6947V14.06H33.4047V15.42H34.5247V16.84H33.4047V19.08C33.4047 19.2467 33.4447 19.3667 33.5247 19.44C33.6047 19.5133 33.738 19.55 33.9247 19.55H34.5347ZM36.8472 14.84C36.5472 14.84 36.3005 14.7533 36.1072 14.58C35.9205 14.4 35.8272 14.18 35.8272 13.92C35.8272 13.6533 35.9205 13.4333 36.1072 13.26C36.3005 13.08 36.5472 12.99 36.8472 12.99C37.1405 12.99 37.3805 13.08 37.5672 13.26C37.7605 13.4333 37.8572 13.6533 37.8572 13.92C37.8572 14.18 37.7605 14.4 37.5672 14.58C37.3805 14.7533 37.1405 14.84 36.8472 14.84ZM37.6972 15.42V21H35.9872V15.42H37.6972ZM39.0964 18.21C39.0964 17.63 39.2131 17.1233 39.4464 16.69C39.6864 16.2567 40.0164 15.9233 40.4364 15.69C40.8631 15.4567 41.3497 15.34 41.8964 15.34C42.5964 15.34 43.1797 15.5233 43.6464 15.89C44.1197 16.2567 44.4297 16.7733 44.5764 17.44H42.7564C42.6031 17.0133 42.3064 16.8 41.8664 16.8C41.5531 16.8 41.3031 16.9233 41.1164 17.17C40.9297 17.41 40.8364 17.7567 40.8364 18.21C40.8364 18.6633 40.9297 19.0133 41.1164 19.26C41.3031 19.5 41.5531 19.62 41.8664 19.62C42.3064 19.62 42.6031 19.4067 42.7564 18.98H44.5764C44.4297 19.6333 44.1197 20.1467 43.6464 20.52C43.1731 20.8933 42.5897 21.08 41.8964 21.08C41.3497 21.08 40.8631 20.9633 40.4364 20.73C40.0164 20.4967 39.6864 20.1633 39.4464 19.73C39.2131 19.2967 39.0964 18.79 39.0964 18.21ZM51.5011 15.42V21H49.7911V20.24C49.6178 20.4867 49.3811 20.6867 49.0811 20.84C48.7878 20.9867 48.4611 21.06 48.1011 21.06C47.6744 21.06 47.2978 20.9667 46.9711 20.78C46.6444 20.5867 46.3911 20.31 46.2111 19.95C46.0311 19.59 45.9411 19.1667 45.9411 18.68V15.42H47.6411V18.45C47.6411 18.8233 47.7378 19.1133 47.9311 19.32C48.1244 19.5267 48.3844 19.63 48.7111 19.63C49.0444 19.63 49.3078 19.5267 49.5011 19.32C49.6944 19.1133 49.7911 18.8233 49.7911 18.45V15.42H51.5011ZM54.9394 13.6V21H53.2294V13.6H54.9394ZM56.3386 18.2C56.3386 17.6267 56.4453 17.1233 56.6586 16.69C56.8786 16.2567 57.1753 15.9233 57.5486 15.69C57.9219 15.4567 58.3386 15.34 58.7986 15.34C59.1919 15.34 59.5353 15.42 59.8286 15.58C60.1286 15.74 60.3586 15.95 60.5186 16.21V15.42H62.2286V21H60.5186V20.21C60.3519 20.47 60.1186 20.68 59.8186 20.84C59.5253 21 59.1819 21.08 58.7886 21.08C58.3353 21.08 57.9219 20.9633 57.5486 20.73C57.1753 20.49 56.8786 20.1533 56.6586 19.72C56.4453 19.28 56.3386 18.7733 56.3386 18.2ZM60.5186 18.21C60.5186 17.7833 60.3986 17.4467 60.1586 17.2C59.9253 16.9533 59.6386 16.83 59.2986 16.83C58.9586 16.83 58.6686 16.9533 58.4286 17.2C58.1953 17.44 58.0786 17.7733 58.0786 18.2C58.0786 18.6267 58.1953 18.9667 58.4286 19.22C58.6686 19.4667 58.9586 19.59 59.2986 19.59C59.6386 19.59 59.9253 19.4667 60.1586 19.22C60.3986 18.9733 60.5186 18.6367 60.5186 18.21ZM65.6757 16.35C65.8757 16.0433 66.1257 15.8033 66.4257 15.63C66.7257 15.45 67.059 15.36 67.4257 15.36V17.17H66.9557C66.529 17.17 66.209 17.2633 65.9957 17.45C65.7824 17.63 65.6757 17.95 65.6757 18.41V21H63.9657V15.42H65.6757V16.35Z" fill="black"/>
</svg>
